<svg xmlns="http://www.w3.org/2000/svg" xmlns:xlink="http://www.w3.org/1999/xlink" id="Layer_1" x="0px" y="0px" viewBox="0 0 310.7 41" style="enable-background:new 0 0 310.7 41;" xml:space="preserve"><style type="text/css">	.st0{fill:#DC185F;}</style><path id="Path_119" class="st0" d="M68.1,40.3c-3.4,0.1-6.8-0.6-9.9-2c-2.7-1.3-4.9-3.6-6.2-6.3c-1.5-3.4-2.3-7.1-2.2-10.8 c0-6.5,1.6-11.3,4.8-14.4c3.2-3.1,7.7-4.7,13.5-4.8c2.9,0,5.8,0.5,8.5,1.6c2.4,1,4.5,2.7,6,4.9c1.5,2.4,2.3,5.3,2.2,8.1h-8.1 c0-1.5-0.3-3-1.1-4.3c-0.7-1.2-1.7-2.1-2.9-2.8c-1.4-0.7-2.9-1-4.5-0.9c-2-0.1-3.9,0.4-5.7,1.3c-1.5,0.9-2.7,2.3-3.3,3.9 c-0.8,2-1.1,4.2-1.1,6.4v1.7c-0.1,2.2,0.3,4.4,1.1,6.5c0.6,1.6,1.8,3,3.2,3.9c1.7,0.9,3.7,1.4,5.6,1.3c1.6,0,3.2-0.3,4.7-0.9 c1.3-0.6,2.4-1.5,3.1-2.7c0.7-1.3,1.1-2.8,1.1-4.3h7.8c0.1,2.9-0.6,5.7-2.2,8.1c-1.4,2.1-3.4,3.8-5.8,4.8C74,39.7,71,40.3,68.1,40.3 z"></path><path id="Path_120" class="st0" d="M90.4,39.6v-39h7.5v39H90.4z"></path><path id="Path_121" class="st0" d="M114,40.3c-2.5,0.1-5-0.7-6.9-2.4c-1.7-1.6-2.5-4.1-2.5-7.7v-19h7.5V29c0,0.8,0.1,1.6,0.3,2.4 c0.2,0.6,0.5,1.1,0.9,1.5c0.4,0.4,1,0.7,1.5,0.9c0.7,0.2,1.4,0.3,2.1,0.3c1.1,0,2.1-0.3,3-0.8c0.9-0.5,1.6-1.3,2.1-2.2 c0.5-1,0.8-2.1,0.8-3.2V11.2h7.6v28.4h-6.1l-0.5-3.9h-0.4c-0.7,0.9-1.5,1.7-2.4,2.4c-1,0.7-2,1.3-3.2,1.6 C116.5,40.1,115.2,40.3,114,40.3z"></path><path id="Path_122" class="st0" d="M153.1,40.3c-1.7,0-3.5-0.3-5-1.1c-1.5-0.7-2.8-1.9-3.7-3.4H144l-0.6,3.8h-6.1v-39h7.5v13.8h0.3 c1.1-1.7,2.9-2.9,4.9-3.4c1.1-0.3,2.3-0.4,3.4-0.4c2.1,0,4.1,0.5,5.9,1.6c1.8,1.2,3.1,2.9,3.9,4.8c1,2.7,1.5,5.5,1.4,8.4 c0.1,2.9-0.4,5.7-1.4,8.4c-0.8,2-2.2,3.7-4,4.9C157.4,39.7,155.2,40.3,153.1,40.3z M150.8,34.1c1.3,0.1,2.5-0.2,3.6-0.9 c0.9-0.6,1.6-1.6,1.9-2.7c0.4-1.5,0.6-3,0.6-4.5v-1.2c0-1.5-0.2-3-0.6-4.5c-0.3-1.1-1-2-1.9-2.7c-1.1-0.6-2.3-1-3.6-0.9 c-0.9,0-1.9,0.2-2.8,0.6c-0.7,0.4-1.4,0.9-1.9,1.6c-0.5,0.8-0.9,1.7-1.1,2.6c-0.3,1.1-0.4,2.3-0.4,3.5v1c0,1.5,0.2,2.9,0.6,4.3 c0.4,1.1,1.1,2.1,2,2.8C148.3,33.8,149.5,34.1,150.8,34.1L150.8,34.1z"></path><path id="Path_123" class="st0" d="M195.6,40.3c-2.1,0-4.1-0.2-6.1-0.6c-1.8-0.4-3.6-1.1-5.1-2.1c-1.4-0.9-2.6-2.1-3.5-3.6 c-0.9-1.6-1.3-3.5-1.3-5.3V28c0-0.2,0-0.3,0-0.5h8c0,0.1-0.1,0.3-0.1,0.4v0.5c0,1.1,0.3,2.1,0.9,2.9c0.7,0.9,1.7,1.5,2.8,1.8 c1.4,0.4,2.8,0.6,4.3,0.6c0.9,0,1.9-0.1,2.8-0.2c0.7-0.1,1.5-0.3,2.2-0.5c0.6-0.2,1.1-0.5,1.6-0.8c0.4-0.3,0.7-0.7,0.9-1.1 c0.2-0.5,0.3-1,0.3-1.5c0-0.9-0.3-1.7-0.9-2.4c-0.8-0.7-1.6-1.2-2.6-1.6c-1.2-0.5-2.4-0.9-3.7-1.2l-4.2-1.1 c-1.4-0.4-2.8-0.8-4.2-1.4c-1.3-0.5-2.5-1.2-3.7-2c-1.1-0.8-2-1.8-2.6-3c-2.4-4.4-0.9-9.9,3.4-12.4c1.5-0.9,3.1-1.5,4.9-1.9 c2-0.4,4-0.6,6-0.6c1.9,0,3.8,0.2,5.7,0.6c1.7,0.4,3.3,1,4.7,2c1.3,0.9,2.4,2,3.2,3.4c0.8,1.5,1.2,3.2,1.2,4.9v0.6h-7.8v-0.4 c0-0.9-0.3-1.8-0.9-2.5c-0.7-0.7-1.5-1.3-2.4-1.6c-1.2-0.4-2.4-0.6-3.7-0.6c-1.3,0-2.6,0.1-3.9,0.4c-0.9,0.2-1.7,0.6-2.4,1.3 c-0.5,0.5-0.8,1.2-0.8,2c0,0.8,0.3,1.6,1,2.2c0.8,0.6,1.6,1.1,2.6,1.5c1.2,0.4,2.4,0.8,3.7,1.1c1.4,0.3,2.8,0.7,4.2,1.1 c1.4,0.4,2.8,0.9,4.2,1.4c1.3,0.5,2.5,1.2,3.7,2c1.1,0.8,2,1.8,2.6,3c0.7,1.3,1,2.8,1,4.3c0.1,2.5-0.6,4.9-2,6.9 c-1.5,1.8-3.4,3.1-5.6,3.8C201.2,40,198.4,40.4,195.6,40.3z"></path><path id="Path_124" class="st0" d="M230.3,40.3c-2.7,0.1-5.4-0.5-7.9-1.6c-2.1-1-3.9-2.8-4.9-4.9c-1.2-2.6-1.8-5.5-1.7-8.3 c-0.1-2.9,0.4-5.8,1.7-8.4c1.1-2.1,2.8-3.8,4.9-4.9c5.1-2.2,10.8-2.2,15.9,0c2.1,1,3.8,2.7,4.9,4.9c2.2,5.4,2.2,11.4,0,16.7 c-1,2.1-2.8,3.8-4.9,4.9C235.8,39.8,233,40.3,230.3,40.3z M230.3,34.4c1.4,0.1,2.8-0.2,4-0.9c1-0.7,1.8-1.7,2.2-2.8 c0.5-1.5,0.7-3.1,0.7-4.6v-1.3c0-1.6-0.2-3.1-0.7-4.6c-0.4-1.2-1.1-2.1-2.2-2.8c-1.2-0.7-2.6-1-4-0.9c-1.4-0.1-2.7,0.3-3.9,0.9 c-1,0.7-1.8,1.7-2.2,2.8c-0.5,1.5-0.7,3.1-0.7,4.6v1.3c0,1.6,0.2,3.1,0.7,4.6c0.4,1.2,1.1,2.1,2.2,2.8 C227.6,34.2,228.9,34.5,230.3,34.4L230.3,34.4z"></path><path id="Path_125" class="st0" d="M260.3,40.3c-2.1,0-4.2-0.5-6.1-1.6c-1.8-1.2-3.2-2.9-4-4.9c-1-2.7-1.5-5.5-1.4-8.4 c-0.1-2.9,0.4-5.7,1.4-8.4c0.8-2,2.2-3.7,3.9-4.8c1.7-1,3.8-1.6,5.8-1.5c1.2,0,2.3,0.1,3.4,0.4c1,0.2,2,0.7,2.8,1.3 c0.8,0.6,1.5,1.3,2.1,2.2h0.3V0.6h7.5v39H270l-0.6-3.8h-0.4c-0.9,1.5-2.1,2.6-3.7,3.4C263.8,39.9,262.1,40.3,260.3,40.3z  M262.7,34.1c1.2,0.1,2.4-0.3,3.4-1c0.9-0.7,1.6-1.7,2-2.8c0.5-1.4,0.7-2.9,0.6-4.3v-1c0-1.2-0.1-2.3-0.3-3.5 c-0.2-0.9-0.5-1.8-1.1-2.6c-0.5-0.7-1.1-1.2-1.9-1.6c-0.8-0.4-1.8-0.6-2.7-0.6c-1.3-0.1-2.5,0.3-3.6,0.9c-0.9,0.6-1.6,1.6-1.9,2.7 c-0.4,1.5-0.6,3-0.6,4.5v1.2c0,1.5,0.2,3,0.6,4.5c0.3,1.1,1,2,1.9,2.7C260.2,33.9,261.4,34.2,262.7,34.1L262.7,34.1z"></path><path id="Path_126" class="st0" d="M290.6,40.3c-1,0-2-0.1-3-0.3c-1.1-0.2-2.1-0.6-3-1.2c-1-0.6-1.8-1.4-2.3-2.4 c-0.6-1.3-1-2.7-0.9-4.1c-0.2-3.4,1.8-6.6,5-8c1.8-0.8,3.8-1.3,5.7-1.5c2.5-0.3,4.9-0.4,7.4-0.4v-2.2c0-0.7-0.1-1.5-0.4-2.2 c-0.3-0.6-0.8-1.1-1.4-1.5c-0.9-0.4-1.8-0.6-2.8-0.5c-1,0-2,0.1-2.9,0.4c-0.6,0.2-1.2,0.6-1.6,1.1c-0.3,0.4-0.5,0.9-0.5,1.5v0.6 h-7.3c0-0.2-0.1-0.3-0.1-0.5v-0.6c0-1.6,0.5-3.1,1.5-4.3c1.1-1.3,2.6-2.3,4.3-2.8c2.1-0.7,4.2-1,6.4-1c2.3,0,4.5,0.4,6.6,1.2 c1.6,0.6,3.1,1.6,4.1,3c1,1.5,1.5,3.2,1.4,5v12.9c0,0.5,0.2,1.1,0.6,1.4c0.4,0.3,0.8,0.5,1.3,0.5h1.8v4.9c-0.5,0.2-1.1,0.4-1.7,0.6 c-0.9,0.2-1.8,0.3-2.8,0.3c-0.9,0-1.9-0.1-2.8-0.5c-0.8-0.3-1.5-0.7-2-1.3c-0.5-0.6-0.9-1.3-1.1-2.1h-0.4c-0.6,0.8-1.4,1.5-2.2,2 c-0.9,0.6-2,1.1-3.1,1.3C293.3,40.1,291.9,40.3,290.6,40.3z M293.1,34.6c0.9,0,1.8-0.1,2.7-0.5c0.7-0.3,1.4-0.7,2-1.2 c0.6-0.5,1-1.2,1.3-1.9c0.3-0.8,0.5-1.6,0.5-2.4V27c-1.8,0-3.6,0.1-5.4,0.4c-1.3,0.2-2.6,0.6-3.7,1.4c-0.9,0.6-1.4,1.6-1.4,2.7 c0,0.6,0.2,1.2,0.5,1.7c0.3,0.5,0.8,0.9,1.4,1.1C291.6,34.5,292.4,34.6,293.1,34.6z"></path><path class="st0" d="M35.1,6.1C31.2,2.2,26,0,20.6,0C9.3,0,0.1,9.1,0,20.4C0,31.7,9.1,41,20.4,41S41,31.9,41,20.6 C41,15.1,38.9,9.9,35.1,6.1z M14.6,11.2c0-3.3,2.7-5.9,5.9-5.9c3.3,0,5.9,2.7,5.9,5.9s-2.7,5.9-5.9,5.9c-1.6,0-3.1-0.6-4.2-1.8 C15.2,14.3,14.6,12.8,14.6,11.2z M23,35.7c-0.6,0.6-1.5,1-2.4,1l0,0c-1.8,0-3.3-1.5-3.3-3.3c0-1.8,1.5-3.3,3.3-3.3s3.3,1.5,3.3,3.3 C24,34.2,23.7,35,23,35.7z M27.2,27.7L27.2,27.7c-2.4,0-4.2-1.9-4.2-4.2c0-2.3,1.9-4.2,4.2-4.2c2.3,0,4.2,1.9,4.2,4.2 C31.4,25.8,29.5,27.7,27.2,27.7z"></path></svg>